HIERARCHY
ROOT Hips
{
  OFFSET 0.000000 0.000000 0.000000
  CHANNELS 6 Xposition Yposition Zposition Xrotation Yrotation Zrotation
  JOINT Spine
  {
    OFFSET 1.471354 23.290033 -6.106481
    CHANNELS 3 Xrotation Yrotation Zrotation
    JOINT Chest
    {
      OFFSET 1.471354 23.290033 -6.106481
      CHANNELS 3 Xrotation Yrotation Zrotation
      JOINT Neck
      {
        OFFSET -2.554482 8.383535 -1.440578
        CHANNELS 3 Xrotation Yrotation Zrotation
        JOINT Head
        {
          OFFSET -6.488949 6.596687 -1.313551
          CHANNELS 3 Xrotation Yrotation Zrotation
          End Site
          {
            OFFSET -1.946685 1.979006 -0.394065
          }
        }
      }
      JOINT LeftShoulder
      {
        OFFSET 4.445460 -1.571870 -16.227993
        CHANNELS 3 Xrotation Yrotation Zrotation
        JOINT LeftArm
        {
          OFFSET -5.835221 -22.551993 -2.146173
          CHANNELS 3 Xrotation Yrotation Zrotation
          JOINT LeftForeArm
          {
            OFFSET -12.437178 -19.553858 5.324733
            CHANNELS 3 Xrotation Yrotation Zrotation
            JOINT LeftHand
            {
              OFFSET -3.243800 -4.801626 -2.197453
              CHANNELS 3 Xrotation Yrotation Zrotation
              End Site
              {
                OFFSET -0.973140 -1.440488 -0.659236
              }
            }
          }
        }
      }
      JOINT RightShoulder
      {
        OFFSET -4.445460 1.571870 16.227993
        CHANNELS 3 Xrotation Yrotation Zrotation
        JOINT RightArm
        {
          OFFSET 15.000000 -5.000000 0.000000
          CHANNELS 3 Xrotation Yrotation Zrotation
          JOINT RightForeArm
          {
            OFFSET 12.000000 -8.000000 0.000000
            CHANNELS 3 Xrotation Yrotation Zrotation
            JOINT RightHand
            {
              OFFSET 5.000000 -5.000000 0.000000
              CHANNELS 3 Xrotation Yrotation Zrotation
              End Site
              {
                OFFSET 1.500000 -1.500000 0.000000
              }
            }
          }
        }
      }
    }
  }
  JOINT LeftUpLeg
  {
    OFFSET 5.983835 -1.012600 -8.641845
    CHANNELS 3 Xrotation Yrotation Zrotation
    JOINT LeftLeg
    {
      OFFSET 2.259026 -41.160902 2.325652
      CHANNELS 3 Xrotation Yrotation Zrotation
      JOINT LeftFoot
      {
        OFFSET 27.481258 -16.640986 16.500056
        CHANNELS 3 Xrotation Yrotation Zrotation
        End Site
        {
          OFFSET 8.244378 -4.992296 4.950017
        }
      }
    }
  }
  JOINT RightUpLeg
  {
    OFFSET -5.983835 1.012600 8.641845
    CHANNELS 3 Xrotation Yrotation Zrotation
    JOINT RightLeg
    {
      OFFSET -9.973435 -38.659740 8.660418
      CHANNELS 3 Xrotation Yrotation Zrotation
      JOINT RightFoot
      {
        OFFSET -10.566743 -41.878031 2.772515
        CHANNELS 3 Xrotation Yrotation Zrotation
        End Site
        {
          OFFSET -3.170023 -12.563409 0.831755
        }
      }
    }
  }
}
MOTION
Frames: 7
Frame Time: 0.083333
0.000000 60.000000 0.000000 0.128820 -0.029334 -0.086078 0.000000 0.000000 0.000000 -0.104655 0.035151 0.088458 -0.023670 -0.020779 -0.071210 2.500000 0.000000 0.000000 0.000000 0.000000 0.000000 0.000000 0.000000 0.000000 0.000000 0.000000 0.000000 0.000000 0.000000 0.000000 0.000000 0.000000 0.000000 0.000000 0.000000 0.000000 0.000000 0.000000 0.000000 0.000000 0.000000 0.000000 -2.908194 -0.074971 0.791487 7.223037 -0.285137 -8.685698 0.000000 0.000000 0.000000 2.156064 0.046512 3.230548 -2.365354 0.258142 -3.498834 0.000000 0.000000 0.000000
0.000000 60.000000 0.000000 0.139535 -0.033185 -0.099050 0.000000 0.000000 0.000000 -0.113212 0.038955 0.098888 -0.025692 -0.022518 -0.076937 2.129515 0.000000 0.000000 0.240559 -0.151246 0.572554 0.015071 0.129508 -0.487959 -55.411875 3.701432 -102.042055 0.000000 0.000000 0.000000 0.000000 0.000000 0.000000 0.000000 0.000000 0.000000 0.000000 0.000000 0.000000 0.000000 0.000000 0.000000 -2.540387 -0.107134 0.116590 7.308548 0.795562 -9.289900 0.000000 0.000000 0.000000 1.588920 0.217858 3.370837 -1.776280 0.092447 -2.225546 0.000000 0.000000 0.000000
0.000000 60.000000 0.000000 0.139941 -0.033272 -0.099306 0.000000 0.000000 0.000000 -0.113498 0.039042 0.098952 -0.025784 -0.022576 -0.077125 5.000000 0.000000 0.000000 1.343478 -0.868772 3.433982 0.287002 0.714553 -2.816291 -49.476327 10.296611 -97.797298 0.000000 0.000000 0.000000 0.000000 0.000000 0.000000 0.000000 0.000000 0.000000 0.000000 0.000000 0.000000 0.000000 0.000000 0.000000 -6.090043 -0.352947 -1.275131 20.412012 5.601184 -26.511938 0.000000 0.000000 0.000000 3.060657 0.974489 9.541019 -3.768466 0.106106 -2.342704 0.000000 0.000000 0.000000
0.000000 60.000000 0.000000 0.728849 -0.182914 -0.557056 0.000000 0.000000 0.000000 -0.588866 0.208725 0.530231 -0.135169 -0.117506 -0.399304 5.000000 0.000000 0.000000 3.349405 -2.231764 9.184353 1.838680 1.541342 -7.127152 -45.050517 15.075841 -90.876441 0.000000 0.000000 0.000000 0.000000 0.000000 0.000000 0.000000 0.000000 0.000000 0.000000 0.000000 0.000000 0.000000 0.000000 0.000000 -6.260004 -0.544223 -4.763723 27.109033 15.486585 -34.472556 0.000000 0.000000 0.000000 1.660443 1.854181 12.667696 -3.605395 0.502228 5.658249 0.000000 0.000000 0.000000
0.000000 60.000000 0.000000 1.766838 -0.474760 -1.481898 0.000000 0.000000 0.000000 -1.409305 0.517084 1.274585 -0.335659 -0.284626 -0.951348 5.000000 0.000000 0.000000 4.143432 -2.903682 12.619383 5.679242 0.940401 -8.775192 -7.023270 22.651264 -69.870313 0.000000 0.000000 0.000000 0.000000 0.000000 0.000000 0.000000 0.000000 0.000000 0.000000 0.000000 0.000000 0.000000 0.000000 0.000000 -5.774468 -0.433862 -4.978605 23.543771 19.559957 -23.461884 0.000000 0.000000 0.000000 2.455330 1.002229 10.064730 -6.602298 2.982250 10.328607 0.000000 0.000000 0.000000
0.000000 60.000000 0.000000 2.037855 -0.548249 -1.723498 0.000000 0.000000 0.000000 -1.557557 0.545421 1.031850 -0.428004 -0.345788 -1.047332 5.000000 0.000000 0.000000 5.325891 -3.765449 16.029218 9.672980 -0.128138 -10.837279 9.867521 18.916652 -60.366626 0.000000 0.000000 0.000000 0.000000 0.000000 0.000000 0.000000 0.000000 0.000000 0.000000 0.000000 0.000000 0.000000 0.000000 0.000000 -5.632821 -0.790904 -9.443036 22.706589 20.788274 -22.939176 0.000000 0.000000 0.000000 2.759244 0.749383 10.077555 -7.774641 3.800370 11.501453 0.000000 0.000000 0.000000
0.000000 60.000000 0.000000 2.378347 -0.345737 -0.816060 0.000000 0.000000 0.000000 -1.770049 0.329877 -0.341688 -0.608964 -0.556779 -1.272005 5.000000 0.000000 0.000000 5.581245 -4.410043 20.205096 10.659721 -0.612131 -14.259407 36.674128 7.812205 -47.959937 0.000000 0.000000 0.000000 0.000000 0.000000 0.000000 0.000000 0.000000 0.000000 25.433542 -29.970649 -122.061040 0.000000 0.000000 0.000000 -5.149739 -1.186711 -14.414010 25.402238 21.233411 -33.925356 0.000000 0.000000 0.000000 2.888706 1.246895 12.896852 -8.615005 4.190968 8.858626 0.000000 0.000000 0.000000
